<svg width="180" height="180" viewBox="0 0 180 180" fill="none" xmlns="http://www.w3.org/2000/svg">
<circle cx="90" cy="90" r="90" fill="#E9E9E9"/>
<circle cx="90" cy="90" r="76" fill="#00AA7F"/>
<path d="M114 88C114 88 114 90.5515 112.954 93.9063L101.295 82.249C100.662 81.6159 99.8043 81.2598 98.9095 81.259H88.5528C87.798 81.2595 87.0653 81.513 86.4715 81.979L82.3833 85.1785C82.1027 85.3983 81.7815 85.5607 81.4381 85.6563C81.0948 85.7518 80.7359 85.7788 80.3821 85.7355C80.0283 85.6923 79.6865 85.5797 79.3762 85.4042C79.066 85.2287 78.7934 84.9937 78.574 84.7128C78.1308 84.1445 77.931 83.4238 78.0183 82.7085C78.1056 81.9932 78.4729 81.3417 79.0398 80.8968L92.9898 70H96.0003C100.774 70 105.353 71.8964 108.728 75.2721C112.104 78.6477 114 83.2261 114 88ZM67.6143 95.4925C67.3892 95.2668 67.1218 95.0878 66.8274 94.9657C66.533 94.8435 66.2174 94.7806 65.8987 94.7806C65.5799 94.7806 65.2643 94.8435 64.9699 94.9657C64.6755 95.0878 64.4081 95.2668 64.183 95.4925L60.709 98.98C60.2537 99.4371 59.998 100.056 59.998 100.701C59.998 101.346 60.2537 101.965 60.709 102.423C60.9341 102.648 61.2015 102.827 61.4959 102.949C61.7903 103.072 62.1059 103.134 62.4247 103.134C62.7434 103.134 63.059 103.072 63.3534 102.949C63.6478 102.827 63.9152 102.648 64.1403 102.423L67.6143 98.935C68.0695 98.4783 68.3251 97.8597 68.3251 97.2149C68.3251 96.57 68.0695 95.9515 67.6143 95.4948V95.4925ZM71.2053 100.195C71.4303 99.9687 71.6978 99.7892 71.9924 99.6667C72.287 99.5441 72.603 99.4811 72.922 99.4811C73.2411 99.4811 73.5571 99.5441 73.8517 99.6667C74.1463 99.7892 74.4138 99.9687 74.6388 100.195C75.0934 100.652 75.3487 101.27 75.3487 101.915C75.3487 102.56 75.0934 103.178 74.6388 103.635L71.1603 107.116C70.9353 107.342 70.668 107.521 70.3736 107.644C70.0792 107.766 69.7635 107.829 69.4447 107.829C69.1258 107.829 68.8102 107.766 68.5158 107.644C68.2213 107.521 67.954 107.342 67.729 107.116C67.2744 106.659 67.0192 106.041 67.0192 105.396C67.0192 104.751 67.2744 104.133 67.729 103.676L71.203 100.193L71.2053 100.195ZM80.4685 106.038C80.2434 105.813 79.976 105.634 79.6816 105.511C79.3872 105.389 79.0716 105.326 78.7529 105.326C78.4342 105.326 78.1186 105.389 77.8242 105.511C77.5298 105.634 77.2624 105.813 77.0373 106.038L73.5633 109.521C73.1074 109.978 72.8514 110.597 72.8514 111.243C72.8514 111.888 73.1074 112.507 73.5633 112.964C73.7882 113.19 74.0556 113.369 74.35 113.491C74.6444 113.614 74.9601 113.677 75.2789 113.677C75.5977 113.677 75.9134 113.614 76.2078 113.491C76.5022 113.369 76.7696 113.19 76.9945 112.964L80.4685 109.479C80.9239 109.021 81.1795 108.402 81.1795 107.757C81.1795 107.112 80.9239 106.495 80.4685 106.038ZM86.296 111.879C86.0711 111.653 85.8036 111.473 85.5089 111.351C85.2143 111.228 84.8984 111.165 84.5793 111.165C84.2602 111.165 83.9443 111.228 83.6496 111.351C83.355 111.473 83.0875 111.653 82.8625 111.879L79.3885 115.365C78.9339 115.822 78.6787 116.44 78.6787 117.085C78.6787 117.729 78.9339 118.348 79.3885 118.805C79.6135 119.031 79.8808 119.21 80.1753 119.332C80.4697 119.455 80.7853 119.518 81.1042 119.518C81.423 119.518 81.7387 119.455 82.0331 119.332C82.3275 119.21 82.5948 119.031 82.8198 118.805L86.2938 115.32C86.749 114.863 87.0046 114.244 87.0046 113.599C87.0046 112.955 86.749 112.336 86.2938 111.879H86.296ZM84.8403 70.6593C83.6553 70.3084 82.4351 70.0896 81.202 70.0067C81.1346 70.0031 81.0671 70.0016 80.9995 70.0022H80.2503C75.4764 70.0022 70.898 71.8987 67.5224 75.2743C64.1467 78.65 62.2503 83.2284 62.2503 88.0023V92.698C63.3629 91.794 64.7715 91.3352 66.2032 91.4104C67.6348 91.4857 68.9875 92.0896 69.9993 93.1053C70.8835 93.994 71.4235 95.0988 71.617 96.2508C72.4707 96.0552 73.3574 96.0554 74.211 96.2511C75.0646 96.4469 75.8628 96.8333 76.5458 97.3813C77.2289 97.9293 77.7791 98.6248 78.1553 99.4156C78.5315 100.206 78.7239 101.072 78.718 101.948C79.4857 101.944 80.2464 102.093 80.9562 102.385C81.6659 102.678 82.3107 103.108 82.8531 103.651C83.3955 104.194 83.8247 104.84 84.116 105.55C84.4073 106.26 84.5548 107.021 84.55 107.789C85.3159 107.785 86.075 107.933 86.7831 108.225C87.4912 108.517 88.134 108.947 88.6743 109.49C89.7617 110.582 90.3722 112.06 90.3722 113.601C90.3722 115.141 89.7617 116.619 88.6743 117.711L88.168 118.22L91.0345 121.064C91.4888 121.512 92.101 121.763 92.7389 121.763C93.3768 121.763 93.989 121.512 94.4433 121.064C95.3748 120.141 95.377 118.647 94.4478 117.723C94.1285 117.406 93.9481 116.976 93.9462 116.526C93.9443 116.076 94.1211 115.644 94.4377 115.325C94.7542 115.006 95.1847 114.825 95.6343 114.824C96.0838 114.822 96.5158 114.998 96.835 115.315C97.2893 115.763 97.9015 116.014 98.5394 116.014C99.1773 116.014 99.7895 115.763 100.244 115.315C100.465 115.096 100.641 114.836 100.761 114.549C100.881 114.263 100.943 113.955 100.943 113.644C100.943 113.333 100.882 113.025 100.762 112.738C100.642 112.451 100.467 112.19 100.246 111.972C99.9469 111.651 99.7836 111.227 99.7902 110.788C99.7969 110.35 99.9731 109.931 100.282 109.62C100.591 109.308 101.008 109.129 101.446 109.118C101.885 109.108 102.31 109.268 102.633 109.564C103.088 110.011 103.7 110.26 104.337 110.26C104.975 110.259 105.586 110.007 106.04 109.56C106.994 108.615 106.989 107.08 106.078 106.173L106.071 106.169L101.002 101.097C100.704 100.777 100.542 100.354 100.549 99.9171C100.557 99.4799 100.734 99.0628 101.043 98.7536C101.353 98.4444 101.77 98.2673 102.207 98.2596C102.644 98.2519 103.067 98.4142 103.387 98.7123L109.318 104.637C110.504 105.813 112.459 105.825 113.487 104.805C114.511 103.791 114.502 101.865 113.328 100.697L113.323 100.692L98.392 85.7635H88.942L85.1575 88.7245C84.4115 89.3083 83.5578 89.7393 82.6452 89.993C81.7326 90.2468 80.7789 90.3182 79.8387 90.2033C78.8984 90.0884 77.99 89.7894 77.1654 89.3233C76.3407 88.8572 75.616 88.2332 75.0325 87.487C73.8537 85.9787 73.3218 84.0641 73.5539 82.1639C73.7859 80.2637 74.7629 78.5333 76.27 77.353L84.838 70.6615L84.8403 70.6593Z" fill="white"/>
</svg>
