<svg width="180" height="180" viewBox="0 0 180 180" fill="none" xmlns="http://www.w3.org/2000/svg">
<circle cx="90" cy="90" r="90" fill="#E9E9E9"/>
<circle cx="90" cy="90" r="76" fill="#00AA7F"/>
<mask id="mask0_0_691" style="mask-type:luminance" maskUnits="userSpaceOnUse" x="59" y="58" width="65" height="61">
<path d="M61.0112 85.7595C60.9753 85.3453 61.0258 84.9281 61.1596 84.5345C61.2934 84.1408 61.5076 83.7793 61.7886 83.4728C62.0695 83.1663 62.4111 82.9215 62.7917 82.7541C63.1723 82.5866 63.5835 82.5001 63.9992 82.5H69.7277C70.5234 82.5 71.2865 82.8161 71.8491 83.3787C72.4117 83.9413 72.7277 84.7043 72.7277 85.5V114C72.7277 114.796 72.4117 115.559 71.8491 116.121C71.2865 116.684 70.5234 117 69.7277 117H66.4787C65.7279 117 65.0043 116.719 64.4508 116.211C63.8973 115.704 63.5542 115.008 63.4892 114.259L61.0112 85.7595ZM81.7277 84.5625C81.7277 83.3085 82.5077 82.1865 83.6402 81.6525C86.1137 80.4855 90.3272 78.141 92.2277 74.9715C94.6772 70.8855 95.1392 63.504 95.2142 61.8135C95.2247 61.5765 95.2187 61.3395 95.2502 61.1055C95.6567 58.176 101.31 61.5975 103.478 65.2155C104.655 67.1775 104.805 69.756 104.682 71.7705C104.549 73.9245 103.917 76.005 103.298 78.072L101.978 82.4775H118.263C118.727 82.4775 119.184 82.5848 119.599 82.7912C120.014 82.9975 120.376 83.2973 120.655 83.6668C120.935 84.0364 121.125 84.4658 121.211 84.9212C121.297 85.3767 121.277 85.8459 121.151 86.292L113.096 114.816C112.918 115.445 112.539 115.999 112.018 116.393C111.496 116.787 110.86 117 110.207 117H84.7277C83.9321 117 83.169 116.684 82.6064 116.121C82.0438 115.559 81.7277 114.796 81.7277 114V84.5625Z" fill="white" stroke="white" stroke-width="4" stroke-linecap="round" stroke-linejoin="round"/>
</mask>
<g mask="url(#mask0_0_691)">
<path d="M54.7275 52.5H126.728V124.5H54.7275V52.5Z" fill="white"/>
</g>
</svg>
