<svg width="180" height="180" viewBox="0 0 180 180" fill="none" xmlns="http://www.w3.org/2000/svg">
<circle cx="90" cy="90" r="90" fill="#E9E9E9"/>
<circle cx="90" cy="90" r="76" fill="#00AA7F"/>
<path d="M76.5 78C78.8869 78 81.1761 77.0518 82.864 75.364C84.5518 73.6761 85.5 71.3869 85.5 69C85.5 66.6131 84.5518 64.3239 82.864 62.636C81.1761 60.9482 78.8869 60 76.5 60C74.1131 60 71.8239 60.9482 70.136 62.636C68.4482 64.3239 67.5 66.6131 67.5 69C67.5 71.3869 68.4482 73.6761 70.136 75.364C71.8239 77.0518 74.1131 78 76.5 78ZM60 86.304C60 83.37 62.373 81 65.304 81H79.605C78.5502 82.8235 77.9965 84.8935 78 87C77.998 88.7028 78.3593 90.3864 79.0597 91.9384C79.7602 93.4904 80.7838 94.8751 82.062 96H78.804C77.1132 96.0001 75.4626 96.5159 74.0727 97.4786C72.6827 98.4414 71.6195 99.8052 71.025 101.388C66.531 100.29 63.744 97.839 62.103 95.109C60 91.608 60 88.008 60 87.381V86.304ZM102 87C102.004 84.8934 101.45 82.8234 100.395 81H114.696C117.63 81 120 83.373 120 86.304V87.384C120 88.005 120 91.608 117.9 95.109C116.256 97.839 113.469 100.29 108.975 101.388C108.381 99.8049 107.318 98.4409 105.928 97.4781C104.538 96.5153 102.887 95.9996 101.196 96H97.938C99.2163 94.8751 100.24 93.4904 100.94 91.9384C101.641 90.3864 102.002 88.7028 102 87ZM112.5 69C112.5 71.3869 111.552 73.6761 109.864 75.364C108.176 77.0518 105.887 78 103.5 78C101.113 78 98.8239 77.0518 97.136 75.364C95.4482 73.6761 94.5 71.3869 94.5 69C94.5 66.6131 95.4482 64.3239 97.136 62.636C98.8239 60.9482 101.113 60 103.5 60C105.887 60 108.176 60.9482 109.864 62.636C111.552 64.3239 112.5 66.6131 112.5 69ZM73.5 104.304C73.5 101.37 75.873 99 78.804 99H101.196C104.127 99 106.5 101.373 106.5 104.304V105.384C106.5 106.005 106.5 109.608 104.4 113.109C102.171 116.811 97.839 120 90 120C82.161 120 77.826 116.811 75.6 113.109C73.5 109.608 73.5 106.008 73.5 105.381V104.304ZM90 96C91.1819 96 92.3522 95.7672 93.4442 95.3149C94.5361 94.8626 95.5282 94.1997 96.364 93.364C97.1997 92.5282 97.8626 91.5361 98.3149 90.4442C98.7672 89.3522 99 88.1819 99 87C99 85.8181 98.7672 84.6478 98.3149 83.5558C97.8626 82.4639 97.1997 81.4718 96.364 80.636C95.5282 79.8003 94.5361 79.1374 93.4442 78.6851C92.3522 78.2328 91.1819 78 90 78C87.6131 78 85.3239 78.9482 83.636 80.636C81.9482 82.3239 81 84.6131 81 87C81 89.3869 81.9482 91.6761 83.636 93.364C85.3239 95.0518 87.6131 96 90 96Z" fill="white"/>
</svg>
