<svg width="180" height="180" viewBox="0 0 180 180" fill="none" xmlns="http://www.w3.org/2000/svg">
<circle cx="90" cy="90" r="90" fill="#E9E9E9"/>
<circle cx="90" cy="90" r="76" fill="#00AA7F"/>
<path d="M90.4963 51.0003C82.2742 51.0003 75.526 58.2323 75.526 67.3246C75.526 76.4167 82.2742 83.6487 90.4965 83.6487C98.719 83.6487 105.472 76.4167 105.472 67.3244C105.472 58.2319 98.719 51 90.4965 51L90.4963 51.0003ZM81.2029 73.407C83.3019 73.9878 85.3759 74.3638 87.4283 74.5495V77.5167C85.1082 77.3252 82.7699 76.9074 80.4124 76.2555L81.2029 73.407ZM99.7605 73.407L100.536 76.2602C98.2512 76.8834 95.9384 77.302 93.5994 77.5017V74.5396C95.6682 74.346 97.7188 73.9639 99.7608 73.4072L99.7605 73.407ZM74.4391 75.8898C62.5326 83.9283 56.9521 95.7037 56.0544 110.704H56.0889C56.0297 110.979 55.9999 111.259 56 111.54C56 113.725 57.7692 115.496 59.9526 115.496C59.9874 115.496 60.0216 115.492 60.0563 115.491V115.526L88.4264 115.526V95.9971C84.3821 96.7598 81.2769 100.506 81.2769 105.902V107.381H65.4076V104.424H67.4183C67.9976 98.8569 71.6116 92.0808 74.5873 88.3863L76.8846 90.241C74.4153 93.3067 71.0974 99.9992 70.4173 104.424H78.3968C79.0356 97.7647 83.9571 92.8915 89.9733 92.8915C95.5038 92.8915 100.828 97.474 101.658 104.424H110.472C109.617 99.9448 106.278 93.296 103.817 90.241L106.12 88.3868C109.106 92.0936 112.704 98.9079 113.481 104.424H115.151V107.381H98.8463L98.8068 105.942C98.6455 100.3 95.0802 96.7269 91.3806 95.9925V115.526H119.943V115.492C119.978 115.492 120.012 115.497 120.047 115.497C122.231 115.497 124 113.725 124 111.54C124 111.209 123.958 110.888 123.881 110.581C123.001 95.9263 117.712 84.3652 106.327 76.3648C103.319 82.4344 97.3792 86.6066 90.4965 86.6066C83.4352 86.6066 77.3663 82.2168 74.4393 75.8901L74.4391 75.8898ZM71.3014 118.483L72.7541 126H107.626L108.965 118.483H71.3014Z" fill="white"/>
</svg>
