<svg width="20" height="21" viewBox="0 0 20 21" fill="none" xmlns="http://www.w3.org/2000/svg">
<path fill-rule="evenodd" clip-rule="evenodd" d="M8 4.49979C6.93913 4.49979 5.92172 4.92122 5.17157 5.67136C4.42143 6.42151 4 7.43892 4 8.49979C4 9.56066 4.42143 10.5781 5.17157 11.3282C5.92172 12.0784 6.93913 12.4998 8 12.4998C9.06087 12.4998 10.0783 12.0784 10.8284 11.3282C11.5786 10.5781 12 9.56066 12 8.49979C12 7.43892 11.5786 6.42151 10.8284 5.67136C10.0783 4.92122 9.06087 4.49979 8 4.49979ZM2 8.49979C1.99988 7.55549 2.22264 6.6245 2.65017 5.78253C3.0777 4.94056 3.69792 4.21139 4.4604 3.65432C5.22287 3.09724 6.10606 2.728 7.03815 2.57662C7.97023 2.42524 8.92488 2.496 9.82446 2.78314C10.724 3.07028 11.5432 3.56569 12.2152 4.22909C12.8872 4.89248 13.3931 5.70512 13.6919 6.60092C13.9906 7.49672 14.0737 8.45038 13.9343 9.38434C13.795 10.3183 13.4372 11.2062 12.89 11.9758L17.707 16.7928C17.8892 16.9814 17.99 17.234 17.9877 17.4962C17.9854 17.7584 17.8802 18.0092 17.6948 18.1946C17.5094 18.38 17.2586 18.4852 16.9964 18.4875C16.7342 18.4897 16.4816 18.3889 16.293 18.2068L11.477 13.3908C10.5794 14.0291 9.52335 14.4079 8.42468 14.4859C7.326 14.5639 6.22707 14.3379 5.2483 13.8328C4.26953 13.3276 3.44869 12.5628 2.87572 11.6221C2.30276 10.6815 1.99979 9.60122 2 8.49979Z" fill="#6B7280"/>
</svg>
